<svg xmlns="http://www.w3.org/2000/svg" xmlns:xlink="http://www.w3.org/1999/xlink" aria-hidden="true" role="img" class="iconify iconify--logos" width="31.88" height="32" preserveAspectRatio="xMidYMid meet" viewBox="0 0 256 257"><defs><linearGradient id="IconifyId1813088fe1fbc01fb466" x1="-.828%" x2="57.636%" y1="7.652%" y2="78.411%"><stop offset="0%" stop-color="#41D1FF"></stop><stop offset="100%" stop-color="#BD34FE"></stop></linearGradient><linearGradient id="IconifyId1813088fe1fbc01fb467" x1="43.376%" x2="50.316%" y1="2.242%" y2="89.03%"><stop offset="0%" stop-color="#FFBD4F"></stop><stop offset="100%" stop-color="#FF980E"></stop></linearGradient></defs><path fill="url(#IconifyId1813088fe1fbc01fb466)" d="M255.153 37.938L134.897 252.976c-2.522 4.515-9.213 4.54-11.771.048L.875 37.938c-2.746-4.814 1.371-10.646 6.827-9.67l120.385 21.517a6.766 6.766 0 0 0 2.407-.004l117.866-21.483c5.438-.991 9.574 4.816 6.793 9.64Z"></path><path fill="url(#IconifyId1813088fe1fbc01fb467)" d="M185.432.063L96.44 17.501a3.376 3.376 0 0 0-2.724 2.774l-9.619 73.305a3.376 3.376 0 0 0 3.945 3.76l26.549-5.142c2.389-.462 4.413 1.767 3.79 4.118l-5.593 21.115c-.573 2.156 1.467 4.094 3.603 3.436l55.203-17.076c2.355-.728 4.722 1.502 4.095 3.888l-12.266 46.625c-.801 3.043 2.587 5.499 5.277 3.813l73.195-45.962c2.115-1.326 2.239-4.353.227-5.838l-51.036-37.685a3.376 3.376 0 0 1-.309-5.148l42.532-52.396c1.957-2.413-.433-5.937-3.452-5.085L185.432.064Z"></path></svg>
